<svg xmlns="http://www.w3.org/2000/svg"
shape-rendering="geometricPrecision"
width="4000" height="4000" viewBox="0 0 594 594">
  <metadata>null</metadata>

<path d="
M 27.862 438.957
C 30.088 435.938 32.116 432.854 34.162 429.714
C 35.105 429.699 37.254 431.9 38.12 432.452
C 41.135 434.373 44.349 435.864 47.8 436.809
C 52.197 438.013 57.676 438.793 61.953 436.747
C 65.585 435.009 67.253 430.387 64.101 427.246
C 61.556 424.71 57.54 423.955 54.242 422.928
C 46.094 420.389 35.411 418.201 32.223 409.068
C 28.717 399.027 35.176 389.019 45.002 386.278
C 56.118 383.176 68.905 385.829 78.441 392.12
C 77.559 395.871 74.484 399.174 73.211 402.833
C 72.809 403.007 72.213 402.338 71.879 402.136
C 70.833 401.505 69.648 400.947 68.52 400.477
C 64.046 398.615 59.337 397.03 54.44 396.873
C 52.087 396.798 49.613 397.009 47.556 398.259
C 44.148 400.33 44.233 404.384 47.249 406.76
C 49.403 408.457 52.408 409.225 54.984 410.027
C 63.429 412.657 74.18 414.268 78.097 423.388
C 78.861 425.166 79.323 427.121 79.442 429.053
C 79.579 431.281 79.443 433.52 78.748 435.649
C 73.707 451.073 53.12 451.652 40.388 447.059
C 36.914 445.805 33.537 444.285 30.493 442.174
C 29.572 441.535 27.807 440.568 27.534 439.508
C 27.643 439.324 27.753 439.14 27.862 438.957 Z"
opacity="1" fill="rgb(69,131,173)" fill-rule="evenodd" />
<path d="
M 65.709 497.322
C 66.56 497.299 67.593 497.132 68.402 497.444
C 67.877 503.538 68.761 509.724 68.19 515.816
C 68.823 516.134 70.991 513.787 71.494 513.34
C 73.494 511.562 75.307 509.531 77.209 507.647
C 78.213 506.651 79.212 505.376 80.584 504.913
C 81.342 504.858 82.2 504.824 82.832 505.269
C 81.15 508.272 77.478 510.352 75.309 513.052
C 74.984 514.098 76.63 515.376 77.258 516.236
C 78.741 518.266 80.138 520.362 81.592 522.414
C 82.079 523.101 83.368 524.196 83.477 524.98
C 82.691 525.411 81.611 525.278 80.758 525.139
C 78.985 523.4 77.727 521.207 76.239 519.236
C 75.287 517.976 73.992 516.647 73.497 515.133
C 72.148 516.077 70.999 517.427 69.813 518.568
C 69.286 519.033 68.748 519.478 68.225 519.947
C 67.767 521.415 68.309 523.36 68.266 524.913
C 67.513 525.021 66.711 524.921 65.948 524.953
C 64.959 522.471 65.772 518.636 65.811 515.995
C 65.904 509.828 65.233 503.456 65.709 497.322 Z"
opacity="1" fill="rgb(21,17,14)" fill-rule="evenodd" />
<path d="
M 87.468 430.613
C 87.717 428.029 87.986 425.5 89.079 423.104
C 94.84 410.477 110.807 411.171 122.565 411.055
C 125.206 411.029 127.847 411.052 130.486 411.046
C 132.006 404.756 127.49 399.353 121.708 397.963
C 113.799 396.06 103.614 398.36 96.638 402.422
C 95.821 401.918 95.478 400.139 95.126 399.228
C 94.149 396.695 93.243 394.026 92.042 391.597
C 95.265 389.219 99.71 387.966 103.526 386.921
C 116.457 383.377 135.237 383.119 142.173 397.037
C 144.851 402.41 144.818 408.255 144.822 414.118
C 144.826 420.081 144.885 426.043 144.889 432.006
C 144.892 435.672 144.86 439.337 144.85 443.003
C 144.846 444.632 145.15 446.561 144.869 448.157
C 140.724 448.345 135.863 448.715 131.764 448.11
C 131.73 445.592 131.758 443.073 131.736 440.558
C 124.656 448.958 112.509 451.538 102.132 448.615
C 93.797 446.267 87.194 439.674 87.468 430.613 Z
M 101.893 428.597
C 100.937 438.574 113.625 440.156 120.728 437.609
C 124.812 436.144 128.824 433.211 130.003 428.835
C 130.713 426.201 130.501 423.32 130.736 420.629
C 128.836 420.639 126.933 420.57 125.032 420.561
C 117.338 420.526 104.167 418.688 101.893 428.597 Z"
opacity="1" fill="rgb(70,132,176)" fill-rule="evenodd" />
<path d="
M 87.269 505.301
C 88.026 505.098 88.678 505.027 89.447 505.183
C 89.564 506.198 89.435 507.025 89.368 508.06
C 91.043 507.274 92.015 505.599 93.938 505.158
C 95.101 504.891 96.33 504.813 97.515 504.927
C 98.501 505.023 99.468 505.181 100.378 505.584
C 105.246 507.741 104.814 513.19 104.784 517.684
C 104.773 519.401 104.715 521.115 104.773 522.832
C 104.791 523.364 105.007 524.565 104.704 524.999
C 103.978 525.073 103.156 524.939 102.438 524.843
C 101.877 523.679 102.166 522.256 102.181 520.995
C 102.218 517.836 103.198 512.611 101.45 509.832
C 98.788 505.599 92.361 506.558 90.389 510.932
C 89.74 512.371 89.935 514.287 89.908 515.832
C 89.857 518.827 89.693 521.902 89.893 524.888
C 89.348 525.29 88.05 524.961 87.461 524.807
C 86.978 523.304 87.246 521.568 87.271 520.006
C 87.319 517.005 87.331 514.005 87.318 511.004
C 87.311 509.199 86.757 507.029 87.269 505.301 Z"
opacity="1" fill="rgb(26,20,15)" fill-rule="evenodd" />
<path d="
M 109.951 512.585
C 110.287 511.294 110.898 510.09 111.687 509.015
C 118.06 500.327 132.66 507.38 129.633 517.858
C 126.625 528.271 111.623 527.073 109.8 516.597
C 109.569 515.267 109.612 513.889 109.951 512.585 Z
M 112.452 514.101
C 112.31 515.115 112.412 516.083 112.648 517.075
C 114.558 525.103 125.939 524.444 127.177 516.366
C 127.361 515.16 127.371 513.872 126.951 512.715
C 126.18 510.595 124.942 508.825 122.835 507.88
C 118.317 505.854 113.114 509.378 112.452 514.101 Z"
opacity="1" fill="rgb(20,14,9)" fill-rule="evenodd" />
<path d="
M 132.524 505.229
C 133.366 505.048 133.996 505.01 134.834 505.007
C 135.761 506.32 136.058 508.357 136.557 509.881
C 137.798 513.674 138.819 518.163 140.647 521.684
C 141.522 520.581 141.604 518.905 142.085 517.609
C 143.549 513.661 144.354 508.61 146.559 505.049
C 147.243 504.839 148.231 504.687 148.754 505.239
C 151.512 510.373 151.725 516.868 154.46 522.012
C 155.501 521.844 155.598 518.942 155.872 518.031
C 157.104 513.931 157.999 508.988 160.045 505.239
C 160.912 504.881 161.916 504.781 162.84 505.003
C 162.207 507.705 160.742 510.323 159.895 512.984
C 158.929 515.943 157.584 518.91 156.882 521.938
C 156.602 522.904 156.294 523.907 155.807 524.791
C 155.075 525.075 154.228 524.999 153.463 524.896
C 152.461 523.788 152.095 522.091 151.642 520.698
C 150.802 518.116 149.761 515.603 148.909 513.025
C 148.482 511.733 148.281 510.085 147.487 508.991
C 147.053 510.052 146.787 511.145 146.375 512.219
C 145.239 515.296 144.342 518.466 143.214 521.55
C 142.838 522.579 142.655 524.389 141.72 525.06
C 140.971 525.252 140.175 525.207 139.428 525.02
C 138.229 522.561 137.526 519.793 136.595 517.223
C 135.169 513.288 133.386 509.323 132.524 505.229 Z"
opacity="1" fill="rgb(20,15,10)" fill-rule="evenodd" />
<path d="
M 153.462 162.114
C 153.77 158.873 153.75 155.624 154.201 152.39
C 155.603 142.351 158.459 132.263 163.004 123.19
C 164.279 120.645 165.707 118.204 167.056 115.701
C 167.498 114.883 168.111 112.964 168.992 112.651
C 179.846 129.896 182.414 149.928 179.41 169.891
C 178.48 176.079 177.037 182.256 175.462 188.309
C 174.936 190.33 174.251 192.307 173.725 194.323
C 173.637 194.659 172.755 197.628 172.488 197.383
C 173.004 192.772 172.731 188.244 172.373 183.609
C 171.572 173.237 169.623 161.675 162.079 153.934
C 163.774 158.819 165.284 163.414 165.901 168.617
C 167.227 179.796 165.908 191.115 167.203 202.307
C 167.594 205.687 168.108 208.961 169.03 212.242
C 169.366 213.44 169.672 214.665 170.1 215.834
C 170.173 216.034 170.635 216.853 170.319 216.989
C 167.352 213.766 165.252 209.05 163.265 205.176
C 156.572 192.122 152.837 176.838 153.462 162.114 Z"
opacity="1" fill="rgb(143,195,186)" fill-rule="evenodd" />
<path d="
M 155.164 386.717
C 157.438 386.555 159.727 386.589 162.007 386.585
C 162.432 386.584 164.215 386.858 164.41 386.516
C 164.127 380.814 164.501 374.321 167.899 369.481
C 173.547 361.437 183.932 359.984 192.968 361.93
C 195.503 362.476 198.2 363.179 200.422 364.554
C 199.666 367.329 198.575 370.03 197.659 372.756
C 197.329 373.737 197.109 375.52 196.486 376.32
C 192.214 373.982 186.138 372.455 181.662 375.074
C 178.572 376.883 178.199 379.975 178.094 383.234
C 178.061 384.261 177.785 385.764 178.568 386.488
C 184.117 386.517 189.705 386.41 195.258 386.569
C 195.707 387.486 195.391 388.978 195.374 389.997
C 195.331 392.57 195.217 395.195 195.339 397.761
C 189.71 397.763 183.957 397.432 178.345 397.914
C 177.8 399.107 178.178 401.173 178.182 402.5
C 178.191 405.834 178.222 409.168 178.233 412.503
C 178.271 424.433 177.758 436.477 178.284 448.393
C 173.754 448.924 169.022 448.075 164.455 448.404
C 163.761 447.843 164.074 446.029 164.067 445.159
C 164.042 442.059 164.084 438.959 164.084 435.86
C 164.088 423.315 164.856 410.536 164.173 398.02
C 161.226 397.807 158.158 398.054 155.201 398.117
C 154.787 394.366 155.448 390.493 155.164 386.717 Z"
opacity="1" fill="rgb(71,133,176)" fill-rule="evenodd" />
<path d="
M 169.682 110.97
C 173.999 105.397 178.173 99.752 183.127 94.699
C 187.66 90.075 192.906 86.304 197.694 81.981
C 199.243 82.195 200.764 86.186 201.433 87.494
C 204.66 93.799 206.626 100.638 207.761 107.613
C 212.591 137.28 196.332 163.503 185.538 189.851
C 182.81 196.511 180.761 203.338 178.998 210.315
C 178.546 212.103 178.066 213.887 177.655 215.682
C 177.561 216.094 177.424 217.285 176.966 217.475
C 176.598 206.835 179.732 196.999 182.504 186.87
C 185.786 174.877 188.677 162.207 187.507 149.683
C 186.62 140.183 183.481 130.661 178.484 122.529
C 176.685 119.602 174.689 116.843 172.236 114.427
C 171.303 113.507 169.623 112.334 169.682 110.97 Z"
opacity="1" fill="rgb(143,195,185)" fill-rule="evenodd" />
<path d="
M 180.451 288.259
C 179.788 288.354 179.125 288.447 178.47 288.588
C 173.538 279.337 169.645 268.038 170.286 257.364
C 172.763 257.808 175.31 258.849 177.678 259.701
C 181.152 260.951 185.255 262.18 187.979 264.796
C 190.73 267.438 192.412 271.226 194.495 274.377
C 197.706 279.235 201.273 284.018 205.232 288.296
C 207.909 291.189 210.638 294.286 213.708 296.772
C 215.187 297.97 218.166 299.463 218.938 301.259
C 210.198 297.716 203.837 290.222 194.38 287.976
C 189.423 286.799 185.32 287.681 180.451 288.259 Z"
opacity="1" fill="rgb(114,164,65)" fill-rule="evenodd" />
<path d="
M 174.434 505.011
C 175.189 504.929 176.245 504.711 176.976 504.984
C 178.339 508.188 179.285 511.606 180.36 514.915
C 181.076 517.121 182.084 519.172 182.442 521.481
C 183.482 521.601 183.804 518.492 184.078 517.645
C 184.986 514.842 186.004 512.075 186.91 509.272
C 187.381 507.815 187.605 506.274 188.473 504.989
C 189.154 504.836 189.794 504.837 190.487 504.907
C 192.61 508.655 193.427 513.359 194.942 517.385
C 195.41 518.629 195.593 520.72 196.475 521.656
C 199.047 516.515 199.536 510.293 202.093 505.107
C 202.887 504.771 203.799 504.886 204.638 504.958
C 204.913 505.099 204.351 506.395 204.259 506.661
C 203.65 508.435 203.045 510.219 202.383 511.974
C 201.292 514.928 200.215 517.889 199.155 520.854
C 198.709 522.104 198.511 523.849 197.637 524.872
C 196.84 525.079 196.109 525.085 195.299 525.019
C 193.414 521.317 192.279 516.963 190.968 513.024
C 190.535 511.724 190.377 509.909 189.573 508.802
C 188.918 509.684 188.925 510.789 188.556 511.822
C 187.458 514.903 186.463 518.047 185.301 521.107
C 184.876 522.226 184.719 524.272 183.688 525.006
C 182.938 525.209 182.136 525.1 181.396 524.894
C 180.455 523.353 180.192 521.415 179.596 519.728
C 177.884 514.885 176.388 509.734 174.016 505.17
C 174.155 505.117 174.294 505.064 174.434 505.011 Z"
opacity="1" fill="rgb(19,12,9)" fill-rule="evenodd" />
<path d="
M 178.47 288.588
C 179.125 288.447 179.788 288.354 180.451 288.259
C 180.487 288.998 180.497 288.705 180.472 289.14
C 179.556 289.276 179.162 288.943 179.405 290.054
C 179.015 289.594 178.783 289.096 178.47 288.588 Z"
opacity="1" fill="rgb(170,204,135)" fill-rule="evenodd" />
<path d="
M 180.472 289.14
C 184.57 288.024 189.529 289.629 193.365 291.068
C 203.415 294.838 211.51 302.357 221.39 306.604
C 224.666 308.012 228.199 308.832 231.689 309.508
C 232.282 309.623 234.993 309.987 234.915 310.665
C 214.66 315.242 190.636 308.614 179.405 290.054
C 179.162 288.943 179.556 289.276 180.472 289.14 Z"
opacity="1" fill="rgb(109,159,63)" fill-rule="evenodd" />
<path d="
M 180.058 229.146
C 182.178 223.567 184.243 218.271 187.804 213.376
C 191.069 208.888 194.847 204.803 199.143 201.279
C 217.211 186.457 241.937 184.717 264.252 186.007
C 282.085 187.037 299.808 191.383 317.322 194.635
C 335.316 197.977 353.908 200.086 372.191 198.521
C 380.302 197.826 388.541 196.434 396.221 193.659
C 403.138 191.159 410.186 187.877 416.039 183.367
C 419.018 181.07 421.315 177.99 424.259 175.729
C 424.807 176.37 423.904 179.277 423.768 180.15
C 423.031 184.869 421.273 189.637 419.239 193.939
C 416.719 199.268 413.457 204.42 409.319 208.643
C 399.491 218.669 385.407 223.852 371.568 224.619
C 328.26 227.017 292.322 195.589 249.713 193.803
C 231.722 193.049 212.498 197.21 198.347 208.948
C 193.435 213.022 188.899 217.298 184.908 222.298
C 183.602 223.936 182.591 225.718 181.517 227.509
C 181.29 227.888 179.891 230.544 179.855 230.119
C 179.99 229.4 179.919 229.724 180.058 229.146 Z"
opacity="1" fill="rgb(146,185,73)" fill-rule="evenodd" />
<path d="
M 183.345 243.538
C 184.362 242.18 185.549 241.245 186.892 240.237
C 191.232 248.68 195.382 257.126 200.983 264.855
C 219.164 289.939 246.008 309.901 276.611 316.545
C 294.141 320.351 312.256 320.782 329.833 316.902
C 342.476 314.112 354.447 309.408 365.703 303.031
C 406.634 279.843 431.756 232.49 429.487 185.809
C 430.615 184.149 432.827 182.595 434.252 181.121
C 434.625 195.909 433.746 210.249 430.183 224.666
C 420.61 263.404 392.479 296.087 356.688 312.978
C 346.554 317.76 335.364 320.908 324.319 322.678
C 319.56 323.44 314.755 323.569 309.974 324.025
C 304.869 324.513 299.719 324.069 294.624 323.764
C 258.563 321.601 225.162 302.58 202.535 274.838
C 196.813 267.823 191.777 260.309 187.561 252.296
C 186.568 250.41 185.62 248.497 184.654 246.597
C 184.185 245.673 183.37 244.592 183.345 243.538 Z"
opacity="1" fill="rgb(59,44,31)" fill-rule="evenodd" />
<path d="
M 187.422 232.045
C 192.496 225.14 197.639 218.499 204.884 213.659
C 210.85 209.673 217.17 206.239 224.077 204.174
C 244.564 198.051 268.668 201.44 286.937 212.421
C 290.725 214.698 294.983 217.838 297.865 221.211
C 299.54 223.173 300.619 225.632 302.367 227.508
C 302.349 227.606 300.233 226.618 299.889 226.484
C 298.388 225.899 296.739 225.673 295.163 225.359
C 289.889 224.309 284.581 223.713 279.203 223.654
C 273.124 223.586 267.058 224.477 261.113 225.687
C 259.402 226.035 257.671 226.442 255.991 226.917
C 254.994 227.198 254.074 227.823 253.009 227.814
C 250.272 227.792 246.969 226.001 244.333 225.238
C 240.053 224 235.53 223.252 231.096 222.85
C 220.873 221.925 210.788 222.999 200.952 225.958
C 197.641 226.954 194.459 228.503 191.373 230.04
C 190.648 230.401 187.428 232.959 187.422 232.045 Z"
opacity="1" fill="rgb(143,197,185)" fill-rule="evenodd" />
<path d="
M 198.929 414.104
C 200.125 405.721 203.306 398.199 209.811 392.518
C 221.72 382.119 242.645 381.932 254.124 392.991
C 262.259 400.829 263.621 411.111 263.33 421.792
C 246.694 421.962 229.948 421.15 213.333 422.003
C 213.545 424.63 214.949 427.196 216.414 429.331
C 224.597 441.248 241.918 438.846 251.126 429.831
C 251.792 430.111 252.353 431.096 252.902 431.602
C 254.431 433.012 255.954 434.431 257.469 435.855
C 257.778 436.146 259.352 437.412 259.179 437.656
C 247.925 452.836 222.807 453.16 209.259 441.155
C 201.628 434.394 197.956 424.213 198.929 414.104 Z
M 213.032 411.623
C 212.971 411.822 212.91 412.021 212.849 412.22
C 213.867 412.591 215.412 412.298 216.501 412.286
C 219.002 412.259 221.504 412.293 224.004 412.299
C 232.466 412.32 240.969 412.569 249.426 412.296
C 249.901 410.746 248.485 407.836 247.788 406.475
C 245.172 401.367 240.665 398.142 235.027 397.177
C 228.582 396.075 221.25 398.363 217.031 403.451
C 215.003 405.897 214.01 408.657 213.032 411.623 Z"
opacity="1" fill="rgb(71,134,176)" fill-rule="evenodd" />
<path d="
M 202.47 185.61
C 203.157 181.059 203.365 176.487 204.323 171.963
C 206.464 161.848 210.544 152.381 215.629 143.42
C 233.015 112.777 266.258 93.191 301.43 92.621
C 315.005 92.401 328.596 95.124 341.226 100.006
C 366.609 109.819 388.118 131.736 397.828 157.087
C 399.999 162.755 401.493 168.458 402.812 174.372
C 403.165 175.956 404.398 179.347 403.67 180.83
C 402.425 181.559 401.218 182.371 399.907 182.988
C 399.109 181.006 399.189 178.336 398.799 176.217
C 398.044 172.118 396.943 168.138 395.737 164.153
C 391.587 150.452 383.441 137.931 373.68 127.582
C 350.633 103.147 315.94 92.319 283.072 99.14
C 271.886 101.462 261.134 106.198 251.439 112.183
C 243.29 117.214 235.843 124.009 229.702 131.334
C 220.093 142.795 212.867 156.545 209.075 171.023
C 208.201 174.36 207.539 177.913 207.281 181.354
C 207.129 183.372 207.467 185.898 206.802 187.808
C 205.314 188.464 203.901 189.374 202.395 189.974
C 201.804 189.139 202.377 186.638 202.47 185.61 Z"
opacity="1" fill="rgb(60,45,31)" fill-rule="evenodd" />
<path d="
M 209.213 497.281
C 210.053 497.208 210.874 497.182 211.716 497.221
C 212.155 497.787 211.891 499.267 211.873 499.995
C 211.81 502.552 212.065 505.187 211.709 507.72
C 211.919 507.934 214.932 505.643 215.538 505.4
C 218.048 504.397 221.115 504.633 223.397 506.105
C 228.015 509.085 226.431 515.735 226.489 520.311
C 226.502 521.295 227.294 524.271 226.639 525.011
C 225.725 525.018 224.839 525.183 223.922 525.118
C 223.826 521.917 223.907 518.705 223.918 515.503
C 223.923 513.994 224.145 512.142 223.659 510.692
C 222.017 505.796 215.664 506.474 212.96 509.932
C 210.879 512.783 211.722 517.754 211.772 521.174
C 211.781 521.76 212.161 524.678 211.594 524.943
C 210.877 524.931 210.159 524.926 209.443 524.974
C 208.982 524.536 209.09 523.418 209.089 522.809
C 209.088 521.202 209.097 519.593 209.101 517.986
C 209.118 511.084 209.175 504.182 209.213 497.281 Z"
opacity="1" fill="rgb(21,14,10)" fill-rule="evenodd" />
<path d="
M 210.117 231.474
C 210.201 231.378 210.285 231.283 210.369 231.188
C 211.816 230.299 214.372 230.256 216.055 230.141
C 220.184 229.859 224.278 229.77 228.418 229.992
C 243.635 230.807 258.839 235.511 272.341 242.504
C 275.406 244.091 278.063 246.231 281.046 247.906
C 280.94 246.382 277.767 243.908 276.702 242.858
C 273.019 239.228 268.754 236.115 264.285 233.531
C 262.743 232.639 261.142 231.741 259.516 231.015
C 258.763 230.679 257.861 230.592 257.311 229.984
C 258.887 228.906 261.657 229.155 263.51 229.013
C 269.528 228.553 275.422 229.033 281.386 229.858
C 305.104 233.138 326.541 244.895 349.652 250.444
C 361.366 253.256 374.094 254.737 386.08 253.179
C 390.071 252.66 394.089 251.789 397.878 250.42
C 399.455 249.85 401.014 249.228 402.541 248.55
C 402.713 248.474 403.771 247.938 403.803 248.482
C 403.836 249.054 402.784 249.631 402.458 250.002
C 401.143 251.492 400.052 253.182 398.756 254.695
C 392.862 261.577 385.997 267.342 378.194 271.951
C 345.341 291.358 305.523 283.684 272.948 267.797
C 263.844 263.357 255.252 257.971 246.687 252.579
C 244.586 251.256 242.473 249.964 240.383 248.623
C 240.123 248.457 238.658 247.634 238.734 247.226
C 238.799 246.87 239.462 247.282 239.809 247.385
C 240.572 247.612 241.323 248.119 242.067 248.425
C 244.095 249.258 246.118 250.123 248.166 250.921
C 254.13 253.245 260.492 254.953 266.664 256.636
C 282.141 260.859 299.532 262.294 314.994 257.241
C 319.587 255.74 325.699 253.82 329.043 250.114
C 329.37 249.751 328.756 249.685 328.563 249.712
C 327.414 249.874 326.215 250.439 325.088 250.736
C 322.157 251.508 319.206 252.276 316.215 252.777
C 307.309 254.27 298.489 254.191 289.537 253.147
C 269.762 250.843 251.845 243.24 233.072 237.212
C 227.931 235.561 222.8 233.571 217.509 232.45
C 216.018 232.134 214.492 231.855 212.975 231.708
C 212.081 231.622 210.951 231.823 210.117 231.474 Z"
opacity="1" fill="rgb(68,128,167)" fill-rule="evenodd" />
<path d="
M 214.949 96.527
C 226.355 86.839 238.578 78.515 252.484 72.795
C 282.066 60.627 315.402 59.427 345.727 69.679
C 358.094 73.86 369.469 80.07 380.134 87.519
C 397.167 99.416 410.583 115.861 420.206 134.162
C 421.773 137.142 423.316 140.157 424.73 143.213
C 425.293 144.432 426.377 146.143 426.464 147.485
C 426.568 149.092 425.852 150.8 425.717 152.417
C 425.599 153.829 425.711 156.226 425.005 157.439
C 424.323 156.148 424.129 154.569 423.647 153.184
C 422.478 149.825 421.107 146.465 419.675 143.212
C 414.891 132.344 408.287 121.913 400.664 112.817
C 369.516 75.651 318.403 58.892 271.451 71.289
C 257.754 74.905 244.746 80.678 232.969 88.572
C 228.86 91.327 224.755 94.235 221.019 97.485
C 219.981 98.388 218.851 99.233 217.897 100.228
C 217.413 100.733 216.751 101.765 216.058 101.943
C 215.865 100.217 215.232 98.481 214.583 96.877
C 214.705 96.761 214.827 96.644 214.949 96.527 Z"
opacity="1" fill="rgb(60,45,32)" fill-rule="evenodd" />
<path d="
M 216.013 241.421
C 218.146 242.05 220.939 241.961 222.771 243.372
C 224.603 244.784 225.569 247.627 226.926 249.493
C 229.892 253.574 233.507 257.377 237.095 260.913
C 247.259 270.931 259.551 279.176 273.114 283.821
C 283.829 287.491 295.292 289.431 306.636 288.801
C 309.001 288.67 311.689 288.022 314.034 288.284
C 316.573 288.568 319.012 289.658 321.564 290.003
C 323.137 290.215 326.729 290.107 327.915 291.144
C 327.93 291.777 326.264 291.587 325.855 291.606
C 323.735 291.703 321.569 292.018 319.474 292.353
C 310.082 293.852 300.89 294.002 291.454 292.809
C 268.471 289.903 247.915 278.63 231.81 262.188
C 225.893 256.148 219.867 248.996 216.013 241.421 Z"
opacity="1" fill="rgb(56,43,30)" fill-rule="evenodd" />
<path d="
M 221.92 157.571
C 223.678 151.716 228.032 146.051 231.587 141.171
C 243.959 124.191 262.88 111.673 283.397 107.081
C 289.376 105.743 295.366 104.59 301.508 104.365
C 303.343 104.298 306.55 103.669 308.06 104.861
C 308.58 105.466 308.736 105.992 308.73 106.788
C 308.553 107.54 308.244 108.097 307.786 108.712
C 306.284 109.313 304.239 108.86 302.643 108.959
C 298.146 109.239 293.758 109.601 289.322 110.428
C 276.507 112.816 264.116 118.021 253.49 125.591
C 245.455 131.316 238.484 138.714 232.938 146.84
C 231.094 149.541 229.407 152.396 227.885 155.293
C 227.163 156.668 226.523 158.637 225.206 159.546
C 224.065 159.869 222.785 159.318 221.997 158.471
C 221.838 157.917 221.876 158.216 221.92 157.571 Z"
opacity="1" fill="rgb(58,43,27)" fill-rule="evenodd" />
<path d="
M 231.938 517.055
C 233.862 513.088 238.311 513.362 242.126 513.388
C 243.074 513.394 245.287 513.803 246.041 513.286
C 247.333 508.388 241.243 506.326 237.589 507.505
C 236.285 507.926 235.353 508.972 234.085 509.413
C 233.372 508.943 233.166 508.076 233.045 507.274
C 237.005 503.994 244.984 503.724 247.777 508.704
C 249.475 511.731 248.379 516.841 248.439 520.2
C 248.465 521.688 248.764 523.457 248.329 524.898
C 247.677 525.18 247.159 525.114 246.468 525.035
C 246.414 524.141 246.077 523.196 246.217 522.313
C 246.105 522.247 245.159 523.241 244.989 523.378
C 244.185 524.033 243.182 524.555 242.206 524.895
C 236.789 526.783 230.346 523.264 231.938 517.055 Z
M 234.062 518.617
C 233.901 522.195 237.63 523.608 240.699 523.057
C 244.496 522.376 246.686 519.203 245.946 515.465
C 244.877 515.12 243.668 515.298 242.56 515.302
C 239.417 515.311 235.011 514.854 234.062 518.617 Z"
opacity="1" fill="rgb(18,10,7)" fill-rule="evenodd" />
<path d="
M 252.471 506.647
C 252.549 506.008 252.512 506.364 252.571 505.575
C 253.238 504.882 254.98 505.245 255.891 505.31
C 256.106 503.763 255.954 501.922 255.743 500.376
C 256.648 500.055 257.68 500.096 258.634 500.097
C 258.695 501.423 257.749 504.358 258.49 505.371
C 260.33 505.097 263.014 504.881 264.791 505.422
C 265.002 506.035 265.123 506.608 265.211 507.247
C 263 507.213 260.656 507.056 258.464 507.343
C 258.393 510.855 258.406 514.362 258.453 517.877
C 258.475 519.5 258.573 521.569 260.086 522.551
C 261.693 523.595 263.929 522.065 265.65 522.117
C 265.896 522.735 266.055 523.211 265.903 523.87
C 264.861 524.753 263.49 525.058 262.16 525.166
C 254.396 525.802 255.929 516.439 255.946 511.321
C 255.95 510.243 256.293 508.272 255.832 507.317
C 254.796 507.387 253.52 507.408 252.521 507.119
C 252.504 506.962 252.488 506.804 252.471 506.647 Z"
opacity="1" fill="rgb(21,11,10)" fill-rule="evenodd" />
<path d="
M 269.553 499.121
C 269.528 498.852 269.504 498.582 269.48 498.312
C 270.622 497.813 271.493 497.93 272.687 498.221
C 272.889 500.592 272.645 506.21 269.939 506.917
C 269.421 506.415 269.656 505.561 269.694 504.876
C 269.802 502.932 269.608 501.054 269.553 499.121 Z"
opacity="1" fill="rgb(19,12,10)" fill-rule="evenodd" />
<path d="
M 275.38 522.152
C 275.73 521.527 276.053 520.915 276.46 520.323
C 277.979 520.225 280.038 522.273 281.686 522.658
C 283.435 523.066 285.692 523.055 287.27 522.082
C 288.78 521.151 288.839 519.052 287.586 517.895
C 284.617 515.154 279.368 516.565 276.944 512.751
C 274.98 509.661 277.494 506.084 280.589 505.173
C 284.018 504.163 287.463 505.53 290.546 506.938
C 290.463 507.718 290.169 508.955 289.44 509.378
C 288.581 509.133 287.902 508.352 287.113 507.937
C 285.553 507.117 283.281 506.98 281.577 507.403
C 279.415 507.938 277.858 510.27 279.79 512.016
C 282.887 514.816 288.702 513.61 290.836 517.798
C 292.453 520.972 289.748 524.081 286.76 524.885
C 282.53 526.024 279.221 524.231 275.534 522.555
C 275.483 522.42 275.431 522.286 275.38 522.152 Z"
opacity="1" fill="rgb(19,12,6)" fill-rule="evenodd" />
<path d="
M 277.312 386.262
C 280.707 386.185 284.109 386.266 287.505 386.281
C 288.214 386.284 290.46 385.912 290.854 386.471
C 290.895 389.678 291.017 392.868 290.979 396.054
C 291.906 395.553 292.43 394.263 293.16 393.484
C 294.641 391.902 296.298 390.411 298.079 389.177
C 304.81 384.51 314.544 383.62 322.2 386.202
C 331.378 389.298 338.722 396.237 342.226 405.294
C 348.241 420.839 341.39 440.874 325.408 447.195
C 317.035 450.507 308.01 450.461 300.005 446.126
C 297.915 444.994 295.968 443.477 294.389 441.696
C 293.801 441.033 292.777 439.194 291.919 439.159
C 292.193 445.923 292.037 452.776 292.06 459.563
C 292.071 462.605 292.737 466.495 291.902 469.413
C 287.172 469.447 281.977 468.818 277.313 469.631
C 277.111 467.975 277.39 466.174 277.379 464.495
C 277.352 460.329 277.338 456.163 277.34 451.996
C 277.345 437.329 277.346 422.662 277.337 407.995
C 277.333 400.899 278.169 393.3 277.312 386.262 Z
M 291.916 414.093
C 289.277 430.436 307.469 443.448 321.68 434.234
C 323.909 432.789 325.509 430.834 326.927 428.621
C 328.291 426.492 329.167 423.92 329.56 421.428
C 330.118 417.892 329.928 414.205 328.818 410.792
C 325.113 399.406 311.461 393.501 300.883 399.92
C 295.95 402.914 292.822 408.486 291.916 414.093 Z"
opacity="1" fill="rgb(134,181,74)" fill-rule="evenodd" />
<path d="
M 300.627 215.126
C 319.102 224.066 339.285 231.148 360.016 232.123
C 366.9 232.447 373.843 232.065 380.609 230.732
C 382.801 230.3 384.888 229.684 387.009 229.004
C 387.626 228.806 389.014 228.033 389.633 228.21
C 389.932 228.295 389.43 228.814 389.224 229.047
C 388.622 229.725 388.017 230.388 387.435 231.086
C 385.999 232.807 384.455 234.435 382.796 235.945
C 377.965 240.345 370.306 244.946 363.54 244.671
C 350.626 244.145 337.529 238.883 325.458 234.665
C 321.911 233.426 318.29 232.187 314.816 230.76
C 313.637 230.275 311.945 230.124 310.949 229.319
C 309.715 228.322 308.888 226.025 307.907 224.726
C 305.541 221.589 302.241 218.739 300.627 215.126 Z"
opacity="1" fill="rgb(140,189,177)" fill-rule="evenodd" />
<path d="
M 306.356 498.523
C 306.754 497.84 307.167 497.378 307.92 497.109
C 309.401 497.464 310.3 498.227 309.937 499.813
C 309.639 500.43 309.291 500.777 308.698 501.111
C 307.502 501.332 306.83 500.737 306.309 499.721
C 306.249 498.915 306.232 499.314 306.356 498.523 Z"
opacity="1" fill="rgb(24,13,12)" fill-rule="evenodd" />
<path d="
M 306.97 506.093
C 306.967 505.878 306.965 505.663 306.962 505.449
C 307.738 505.354 308.643 505.249 309.405 505.468
C 309.549 509.966 309.388 514.491 309.394 518.992
C 309.397 520.716 309.953 523.337 309.379 524.953
C 308.594 524.921 307.784 525.056 307.016 524.875
C 306.503 522.325 306.902 519.391 306.924 516.793
C 306.954 513.269 306.629 509.595 306.97 506.093 Z"
opacity="1" fill="rgb(10,7,6)" fill-rule="evenodd" />
<path d="
M 316.63 505.232
C 317.525 505.066 318.257 505.071 319.162 505.209
C 319.603 506.04 319.2 507.372 319.089 508.274
C 319.774 508.506 320.87 506.82 321.403 506.361
C 322.765 505.187 324.582 504.854 326.336 504.894
C 327.18 504.913 328.038 505.042 328.839 505.313
C 336.82 508.02 333.328 518.634 333.975 524.912
C 333.177 525.259 332.273 525.161 331.427 525.19
C 331.352 521.794 331.431 518.398 331.411 514.999
C 331.401 513.331 331.597 511.352 330.744 509.852
C 328.229 505.427 321.575 506.957 319.561 511.066
C 318.972 512.267 319.21 513.963 319.195 515.267
C 319.158 518.578 319.192 521.89 319.246 525.198
C 318.409 525.118 317.633 525.099 316.819 524.864
C 316.2 522.44 316.688 519.492 316.697 516.995
C 316.711 513.133 316.225 509.062 316.63 505.232 Z"
opacity="1" fill="rgb(22,15,11)" fill-rule="evenodd" />
<path d="
M 349.893 512.575
C 351.555 505.503 360.41 502.182 365.984 507.215
C 368.623 509.598 368.947 512.636 369.411 515.921
C 365.412 515.566 360.976 515.815 356.961 516.086
C 355.359 516.194 353.915 515.778 352.39 516.444
C 353.535 520.986 357.474 524.025 362.35 522.591
C 363.918 522.129 364.942 520.457 366.503 520.173
C 370.192 521.466 364.561 524.604 362.855 525.052
C 355.219 527.057 348.002 520.283 349.893 512.575 Z
M 352.474 512.58
C 352.233 513.371 352.32 512.985 352.201 513.734
C 356.826 513.494 362.289 513.383 366.89 513.912
C 366.796 513.097 366.201 512.252 365.859 511.498
C 363.321 505.896 356.981 505.596 353.519 510.563
C 353.09 511.194 352.794 511.889 352.474 512.58 Z"
opacity="1" fill="rgb(20,14,7)" fill-rule="evenodd" />
<path d="
M 358.385 362.552
C 358.438 362.343 358.491 362.133 358.544 361.924
C 362.024 361.791 365.518 361.896 369.003 361.887
C 369.692 361.885 371.871 361.523 372.291 362.068
C 372.865 382.182 372.367 402.38 372.389 422.504
C 372.396 428.17 372.398 433.836 372.393 439.503
C 372.39 442.485 372.116 445.621 372.488 448.58
C 371.224 448.871 369.505 448.458 368.198 448.445
C 364.886 448.412 361.582 448.393 358.281 448.567
C 358.772 419.906 357.687 391.213 358.385 362.552 Z"
opacity="1" fill="rgb(130,178,72)" fill-rule="evenodd" />
<path d="
M 371.284 505.355
C 371.949 504.994 373.153 504.706 373.882 504.999
C 375.088 509.32 377.355 513.606 379.154 517.721
C 379.577 518.69 380.11 521.556 381.007 521.948
C 381.863 520.976 382.125 519.13 382.615 517.929
C 383.694 515.28 384.923 512.691 385.986 510.034
C 386.64 508.398 387.145 506.493 388.215 505.078
C 388.99 505.051 390.205 504.962 390.876 505.425
C 389.671 508.316 388.319 511.223 386.996 514.071
C 385.733 516.988 384.395 519.917 383.33 522.912
C 383.029 523.699 382.809 524.462 382.251 525.109
C 381.501 525.411 380.666 525.395 379.938 525.05
C 378.342 522.966 377.609 520.134 376.545 517.758
C 374.72 513.683 372.672 509.598 371.284 505.355 Z"
opacity="1" fill="rgb(21,15,10)" fill-rule="evenodd" />
<path d="
M 382.856 245.531
C 385.599 242.435 389.432 240.194 392.303 237.113
C 395.563 233.616 397.819 229.404 400.907 225.794
C 403.271 223.03 406.87 221.19 409.54 218.684
C 412.948 215.485 415.482 211.514 418.752 208.28
C 419.495 208.112 418.598 211.641 418.46 212.346
C 417.611 216.677 416.37 220.871 414.423 224.842
C 409.726 234.421 401.284 241.155 391.06 243.972
C 388.688 244.626 385.315 245.863 382.856 245.531 Z"
opacity="1" fill="rgb(72,128,168)" fill-rule="evenodd" />
<path d="
M 385.947 426.58
C 386.68 424.325 387.264 422.082 388.719 420.145
C 397.34 408.681 415.407 411.48 427.936 411.057
C 428.48 409.738 428.005 407.582 427.773 406.212
C 425.884 395.083 410.473 396.59 402.547 399.117
C 400.525 399.762 398.478 400.552 396.536 401.409
C 395.978 401.654 394.736 402.578 394.22 402.241
C 393.299 399.861 392.33 397.481 391.249 395.169
C 390.786 394.18 389.783 392.815 389.896 391.714
C 394.678 388.615 400.535 386.906 406.096 385.888
C 410.453 385.091 414.873 384.822 419.282 385.224
C 422.338 385.503 425.341 386.178 428.221 387.24
C 435.058 389.762 439.959 395.356 441.756 402.373
C 442.652 405.871 442.666 409.461 442.692 413.046
C 442.748 420.864 442.733 428.683 442.72 436.5
C 442.713 440.393 442.361 444.485 442.775 448.355
C 438.339 448.19 433.893 448.353 429.458 448.388
C 428.995 447.873 429.164 447.17 429.167 446.501
C 429.173 444.697 429.168 442.896 429.174 441.094
C 427.775 441.956 426.638 443.485 425.263 444.467
C 422.102 446.726 418.6 448.245 414.794 449.069
C 402.775 451.672 386.823 446.814 385.628 432.604
C 385.46 430.606 385.51 428.54 385.947 426.58 Z
M 399.898 428.078
C 398.306 438.132 410.595 439.948 417.737 437.813
C 422.144 436.496 426.476 433.438 427.684 428.768
C 428.314 426.335 428.18 423.597 428.231 421.105
C 426.066 420.371 422.939 420.926 420.647 420.92
C 413.519 420.9 402.67 419.565 399.898 428.078 Z"
opacity="1" fill="rgb(133,179,76)" fill-rule="evenodd" />
<path d="
M 392.906 512.574
C 394.391 506.459 401.645 502.779 407.29 506.06
C 410.092 507.689 411.616 510.416 412.175 513.548
C 412.291 514.198 412.642 515.536 412.343 516.12
C 406.805 516.801 400.895 514.98 395.397 516.35
C 397.029 520.643 400.679 524.288 405.754 522.436
C 407.191 521.912 408.399 520.229 409.89 520.131
C 413.58 521.169 408.23 524.229 406.84 524.66
C 399.472 526.949 390.637 520.805 392.906 512.574 Z
M 395.426 513.073
C 395.349 513.289 395.272 513.506 395.195 513.722
C 400.02 514.191 404.99 513.278 409.794 513.818
C 409.785 513.151 409.306 512.519 409.087 511.894
C 407.398 507.063 401.347 505.368 397.619 509.27
C 396.597 510.429 396.126 511.733 395.426 513.073 Z"
opacity="1" fill="rgb(23,15,7)" fill-rule="evenodd" />
<path d="
M 419.568 92.841
C 418.85 93.094 419.062 93.642 418.889 94.323
C 417.048 95.309 417.05 99.657 417.074 101.494
C 417.167 108.461 419.398 115.087 422.55 121.231
C 423.57 123.219 424.711 125.194 425.635 127.22
C 425.825 127.639 426.509 128.691 426.038 129.059
C 423.042 126.288 421.256 121.908 418.614 118.756
C 413.993 113.242 408.535 108.378 405.15 101.932
C 402.216 96.342 401.438 90.733 401.087 84.557
C 405.581 85.049 409.598 87.295 413.575 89.3
C 415.561 90.301 417.883 91.373 419.568 92.841 Z"
opacity="1" fill="rgb(142,181,72)" fill-rule="evenodd" />
<path d="
M 417.455 506.593
C 417.588 505.995 417.538 506.338 417.556 505.56
C 418.329 505.09 419.46 505.237 420.323 505.333
C 420.293 506.416 420.11 507.477 419.918 508.543
C 419.611 509.177 421.501 507.377 421.782 507.114
C 422.835 506.129 425.912 504.167 427.298 505.275
C 427.599 505.926 427.991 506.727 427.741 507.442
C 425.176 507.931 421.498 508.859 420.438 511.591
C 419.555 513.868 419.904 517.177 419.906 519.583
C 419.908 520.871 420.493 524.034 419.757 525.069
C 418.988 525.142 418.338 525.073 417.583 524.916
C 417.234 518.927 417.085 512.58 417.455 506.593 Z"
opacity="1" fill="rgb(24,18,14)" fill-rule="evenodd" />
<path d="
M 419.568 92.841
C 421.254 95.891 424.203 98.228 425.957 101.374
C 430.486 109.502 430.713 118.654 428.821 127.582
C 428.408 127.243 428.412 126.597 428.255 126.104
C 427.799 124.681 427.163 123.358 426.514 122.016
C 423.778 116.36 420.751 110.333 419.854 104.045
C 419.522 101.714 419.397 99.351 419.378 96.999
C 419.369 95.99 419.733 95.045 418.889 94.323
C 419.062 93.642 418.85 93.094 419.568 92.841 Z"
opacity="1" fill="rgb(144,180,76)" fill-rule="evenodd" />
<path d="
M 451.942 134.828
C 451.929 135.058 451.917 135.287 451.905 135.517
C 451.753 138.327 451.962 141.133 451.57 143.94
C 450.446 151.972 446.985 159.176 441.801 165.366
C 439.149 168.532 435.777 170.807 432.601 173.374
C 432.071 173.803 429.61 176.034 429.523 175.101
C 434.336 164.082 435.632 151.936 443.043 142.037
C 444.763 139.74 446.865 137.636 449.189 135.948
C 449.819 135.49 451.317 134.217 451.942 134.828 Z"
opacity="1" fill="rgb(153,187,74)" fill-rule="evenodd" />
<path d="
M 429.614 505.298
C 430.48 505.2 432.003 504.806 432.6 505.585
C 433.023 507.668 434.339 509.635 435.175 511.577
C 436.646 514.99 437.884 519.118 440.037 522.157
C 443.142 516.961 443.812 510.366 447.033 505.205
C 447.889 505.093 448.677 505.084 449.482 505.412
C 448.5 507.943 447.322 510.409 446.354 512.95
C 444.273 518.452 442.068 524.169 439.298 529.358
C 437.143 532.806 433.632 533.382 430.051 531.563
C 429.848 530.736 430.082 530.045 430.35 529.252
C 432.006 529.281 433.639 530.546 435.343 529.99
C 438.141 529.076 438.613 525.446 437.625 523.172
C 435.801 518.974 433.827 514.827 432.065 510.603
C 431.322 508.824 429.964 507.194 429.614 505.298 Z"
opacity="1" fill="rgb(23,17,12)" fill-rule="evenodd" />
<path d="
M 451.905 135.517
C 451.917 135.287 451.929 135.058 451.942 134.828
C 452.073 133.365 449.666 134.282 448.969 134.588
C 445.86 135.953 443.241 137.77 440.945 140.291
C 437.873 143.665 435.277 147.727 433.549 151.954
C 432.899 153.545 432.268 155.108 431.82 156.77
C 431.759 156.996 431.6 158.329 431.227 158.303
C 430.934 155.443 431.285 152.377 431.383 149.505
C 431.686 140.555 432.792 131.144 437.74 123.428
C 439.526 120.644 442.5 115.646 446.085 115.153
C 449.344 120.706 450.953 127.017 451.953 133.318
C 452.074 134.123 452.234 134.741 451.905 135.517 Z"
opacity="1" fill="rgb(160,192,80)" fill-rule="evenodd" />
<path d="
M 452.696 386.814
C 455.915 386.82 459.18 386.995 462.394 386.893
C 461.712 381.43 462.471 375.261 462.631 369.756
C 467.133 369.566 471.739 369.56 476.244 369.689
C 476.627 375.233 476.393 380.901 476.525 386.459
C 482.236 386.562 488.249 385.839 493.934 386.507
C 493.906 390.311 494.113 394.123 493.872 397.927
C 489.922 398.031 485.952 397.892 481.999 397.918
C 480.367 397.929 478.135 397.518 476.623 398.16
C 476.682 407.874 476.335 417.616 476.568 427.321
C 476.665 431.365 477.568 435.958 482.155 437.141
C 486.36 438.225 489.352 435.317 493.02 434.156
C 494.102 436.519 495.516 438.74 496.618 441.106
C 496.872 441.652 498.025 443.197 497.733 443.693
C 494.649 446.007 491.639 447.831 487.845 448.837
C 485.146 449.554 482.325 449.838 479.541 449.577
C 470.644 448.744 464.382 443.109 462.732 434.337
C 462.009 430.489 462.311 426.39 462.338 422.494
C 462.396 414.363 462.928 406.037 462.468 397.931
C 459.38 397.607 456.029 397.803 452.926 397.93
C 452.325 397.297 452.701 395.902 452.722 395.052
C 452.791 392.328 452.858 389.533 452.696 386.814 Z"
opacity="1" fill="rgb(130,178,75)" fill-rule="evenodd" />
<path d="
M 463.793 497.385
C 464.482 497.361 465.761 497.073 466.349 497.467
C 466.533 500.996 466.498 504.7 466.221 508.219
C 466.499 508.492 466.84 507.957 467.06 507.766
C 467.923 507.013 468.72 506.249 469.786 505.795
C 472.126 504.801 475.009 504.76 477.372 505.707
C 483.811 508.289 485.234 517.734 480.559 522.585
C 478.097 525.14 473.63 526.212 470.313 524.829
C 469.235 524.379 468.412 523.642 467.489 522.958
C 467.111 522.678 466.86 522.051 466.389 522.07
C 465.758 522.096 466.146 524.81 465.73 525.125
C 465.066 525.182 464.466 525.079 463.813 524.972
C 462.809 520.366 463.669 514.712 463.72 510
C 463.764 505.98 463.047 501.32 463.793 497.385 Z
M 466.464 512.075
C 464.067 519.348 473.094 527.238 478.816 520.496
C 479.508 519.68 479.997 518.743 480.346 517.737
C 481.723 513.774 479.517 509.002 475.575 507.548
C 472.057 506.251 467.638 508.513 466.464 512.075 Z"
opacity="1" fill="rgb(18,11,7)" fill-rule="evenodd" />
<path d="
M 488.902 497.985
C 490.059 496.766 491.206 497.266 492.332 498.234
C 492.671 499.144 492.422 500.199 491.679 500.834
C 490.373 501.258 489.05 500.969 488.604 499.575
C 488.583 498.932 488.568 498.539 488.902 497.985 Z"
opacity="1" fill="rgb(21,13,13)" fill-rule="evenodd" />
<path d="
M 488.958 506.605
C 489.039 506.096 489.004 506.415 488.999 505.644
C 489.7 505.316 491.154 504.807 491.79 505.489
C 491.442 510.127 491.572 514.84 491.567 519.49
C 491.566 520.945 492.276 523.719 491.512 524.966
C 490.719 524.94 489.932 524.929 489.15 524.789
C 488.706 522.592 488.947 520.197 488.951 517.961
C 488.957 514.179 488.862 510.377 488.958 506.605 Z"
opacity="1" fill="rgb(20,13,13)" fill-rule="evenodd" />
<path d="
M 495.864 505.251
C 497.163 505.066 498.359 505.222 499.645 505.396
C 499.848 503.647 499.474 501.679 499.395 499.914
C 500.276 499.864 501.138 499.764 502.021 499.793
C 502.402 501.602 501.922 503.486 502.153 505.314
C 503.991 505.197 506.678 504.763 508.434 505.306
C 508.464 505.841 508.781 506.855 508.353 507.302
C 506.406 507.242 504.421 507.326 502.467 507.339
C 502.015 508.382 502.19 509.677 502.169 510.809
C 502.115 513.667 501.698 516.832 502.093 519.652
C 502.259 520.832 502.333 521.784 503.352 522.559
C 504.708 523.592 507.651 522.227 509.16 522.052
C 509.289 522.716 509.368 523.216 509.304 523.886
C 506.973 526.563 501.648 525.212 500.118 522.384
C 499.396 521.049 499.664 519.031 499.679 517.562
C 499.714 514.181 500.027 510.694 499.663 507.329
C 499.25 506.927 496.608 507.244 495.804 507.065
C 495.747 506.432 495.795 505.88 495.864 505.251 Z"
opacity="1" fill="rgb(18,11,8)" fill-rule="evenodd" />
<path d="
M 502.446 414.095
C 503.606 407.673 505.289 401.518 509.55 396.356
C 519.049 384.852 536.584 381.576 549.949 387.986
C 559.658 392.643 565.477 402.136 566.499 412.693
C 566.699 414.761 566.72 416.854 566.661 418.93
C 566.634 419.862 566.789 421.126 566.27 421.951
C 556.56 421.495 546.638 421.919 536.909 422.026
C 530.259 422.1 523.523 421.719 516.894 422.212
C 516.64 424.265 518.643 427.089 519.709 428.737
C 525.161 437.174 536.426 439.266 545.441 435.834
C 547.668 434.986 549.836 433.778 551.673 432.25
C 552.358 431.679 553.656 429.959 554.448 429.765
C 556.083 431.974 558.472 433.796 560.469 435.673
C 561.009 436.18 562.447 437.134 562.421 437.902
C 559.789 442.089 554.431 445.033 550.048 446.952
C 535.544 453.302 516.421 448.498 507.424 435.251
C 503.324 429.215 501.771 421.297 502.446 414.095 Z
M 516.453 411.59
C 516.235 412.326 516.082 412.102 516.519 412.401
C 528.572 411.516 540.828 413.281 552.862 412.245
C 552.06 400.172 538.075 394.156 527.734 398.131
C 521.762 400.426 518.059 405.556 516.453 411.59 Z"
opacity="1" fill="rgb(132,177,76)" fill-rule="evenodd" />
<path d="
M 512.403 512.576
C 513.99 506.115 521.798 502.731 527.427 506.683
C 530.35 508.735 531.756 512.606 531.474 516.082
C 525.926 516.536 520.274 515.701 514.73 516.361
C 515.835 520.853 519.884 524.152 524.628 522.779
C 526.388 522.27 527.396 520.871 528.984 520.119
C 529.781 520.522 530.437 520.939 530.487 521.896
C 529.774 522.794 528.646 523.444 527.651 523.988
C 519.812 528.276 510.365 521.377 512.403 512.576 Z
M 514.986 512.589
C 514.816 513.224 514.89 512.898 514.768 513.568
C 515.888 514.36 517.682 514.027 519 513.962
C 522.325 513.796 525.669 514.005 528.997 513.886
C 529.131 509.547 524.619 506.552 520.694 507.359
C 517.786 507.956 516.036 509.949 514.986 512.589 Z"
opacity="1" fill="rgb(23,12,5)" fill-rule="evenodd" />

</svg>